# xmcd
#
# Track frame offsets:
#	150
#	11468
#	23271
#	34947
#	46798
#	63606
#	81122
#	91628
#	102664
#	113399
#
# Disc length: 1643 seconds
# Revision: 2
# Processed by: cddbd v1.5.2PL0 Copyright (c) Steve Scherf et al.
# Submitted via: dBpowerAMP V12.0
#
DISCID=6606690a
DTITLE=Various Artist - Classic Country Christmas [Direct Source]
DYEAR=2003
DGENRE=Country Christmas
TTITLE0=Skeeter Davis - Santa Claus Is Coming To Town
TTITLE1=Donna Fargo - Jingle Bells
TTITLE2=Kitty Wells - Old Kris Kringle
TTITLE3=Gene Autry - Up On the House Top
TTITLE4=Jack Greene - O Come All Ye Faithful
TTITLE5=Jeannie C. Riley - Joy To the World
TTITLE6=Eddy Raven - Silent Night
TTITLE7=Kitty Wells - Here Comes Santa Claus
TTITLE8=Jeannie C. Riley - Away In A Manger
TTITLE9=Joe Stampley - Jingle Bell Rock
EXTD=
EXTT0=
EXTT1=
EXTT2=
EXTT3=
EXTT4=
EXTT5=
EXTT6=
EXTT7=
EXTT8=
EXTT9=
PLAYORDER=
